<svg xmlns="http://www.w3.org/2000/svg" viewBox="0 0 537.17 535.31">
    <defs>
        <style>
            .cls-1 {
                fill: #fff;
            }
        </style>
    </defs>
    <g id="Layer_2" data-name="Layer 2">
        <g id="Layer_1-2" data-name="Layer 1">
            <path class="cls-1"
                d="M268.58,0C120.25,0,0,119.83,0,267.65S120.25,535.31,268.58,535.31,537.17,415.47,537.17,267.65,416.92,0,268.58,0Zm0,514.31c-136.24,0-246.69-110.06-246.69-245.83S132.34,22.64,268.58,22.64,515.27,132.7,515.27,268.48,404.83,514.31,268.58,514.31Z" />
            <path class="cls-1"
                d="M268.58,28.87c-132.79,0-240.44,107.27-240.44,239.61S135.79,508.09,268.58,508.09,509,400.81,509,268.48,401.38,28.87,268.58,28.87Zm0,477.31c-131.74,0-238.53-106.42-238.53-237.7S136.84,30.77,268.58,30.77,507.12,137.19,507.12,268.48,400.32,506.18,268.58,506.18Z" />
            <path class="cls-1"
                d="M268.58,71C160,71,71.93,159.05,71.93,267.65s88,196.66,196.65,196.66,196.65-88.05,196.65-196.66S377.19,71,268.58,71Zm0,390.16c-106.87,0-193.51-86.63-193.51-193.51S161.71,74.14,268.58,74.14s193.51,86.64,193.51,193.51S375.46,461.16,268.58,461.16Z" />
            <circle class="cls-1" cx="190.25" cy="146.26" r="16.16" />
            <path class="cls-1"
                d="M268.58,189.32a78.34,78.34,0,1,0,78.34,78.33A78.33,78.33,0,0,0,268.58,189.32Zm0,155.4a77.07,77.07,0,1,1,77.07-77.07A77.07,77.07,0,0,1,268.58,344.72Z" />
        </g>
    </g>
</svg>